# xmcd
# Track frame offsets:
# 150
# 22395
# 36973
# 48618
# 66335
# 82705
# 96811
# 114773
# 133587
# 152231
# 170554
# 192188
#
# Disc length: 2931 seconds
# Revision: 0
# Processed by: cddbd v1.5.2PL0 Copyright (c) Steve Scherf et al.
# Submitted via: VisiTrax 2.11.2.271 - For more info visit www.synapsa.com
#
DISCID=9f0b710c
DTITLE=Deborah Allen - Hear Me Now
DYEAR=2011
DGENRE=
TTITLE0=Amazing Graceland
TTITLE1=It Better Be Big
TTITLE2=Anything Other That Love
TTITLE3=Deeper Waters
TTITLE4=Hands On
TTITLE5=All Because Of You
TTITLE6=Never Gonna Run Out Of Love
TTITLE7=What Makes A Woman
TTITLE8=Last Time For Everything
TTITLE9=All That I Want
TTITLE10=I Want You
TTITLE11=Tellin´You From The Heart
EXTD=
EXTT0=
EXTT1=
EXTT2=
EXTT3=
EXTT4=
EXTT5=
EXTT6=
EXTT7=
EXTT8=
EXTT9=
EXTT10=
EXTT11=
PLAYORDER=
